<mxfile host="app.diagrams.net" agent="Mozilla/5.0 (Windows NT 10.0; Win64; x64) AppleWebKit/537.36 (KHTML, like Gecko) Chrome/129.0.0.0 Safari/537.36" version="24.7.17">
  <diagram name="Page-1" id="bip8NPwT-C6fux6V8fcz">
    <mxGraphModel dx="1050" dy="625" grid="1" gridSize="10" guides="1" tooltips="1" connect="1" arrows="1" fold="1" page="1" pageScale="1" pageWidth="850" pageHeight="1100" math="0" shadow="0">
      <root>
        <mxCell id="0" />
        <mxCell id="1" parent="0" />
        <mxCell id="fwob3zydzBo_w3l8dipO-1" value="TheHive" style="image;aspect=fixed;perimeter=ellipsePerimeter;html=1;align=center;shadow=0;dashed=0;spacingTop=3;image=img/lib/active_directory/internet_cloud.svg;" vertex="1" parent="1">
          <mxGeometry x="630" y="280" width="50" height="31.5" as="geometry" />
        </mxCell>
        <mxCell id="fwob3zydzBo_w3l8dipO-13" value="4. Enrich IOCs" style="edgeStyle=orthogonalEdgeStyle;rounded=0;orthogonalLoop=1;jettySize=auto;html=1;shape=link;fillColor=#dae8fc;strokeColor=#6c8ebf;" edge="1" parent="1" source="fwob3zydzBo_w3l8dipO-2" target="fwob3zydzBo_w3l8dipO-4">
          <mxGeometry relative="1" as="geometry" />
        </mxCell>
        <mxCell id="fwob3zydzBo_w3l8dipO-14" value="5. Send Alerts" style="rounded=0;orthogonalLoop=1;jettySize=auto;html=1;shape=link;fillColor=#f8cecc;strokeColor=#b85450;" edge="1" parent="1" source="fwob3zydzBo_w3l8dipO-2" target="fwob3zydzBo_w3l8dipO-1">
          <mxGeometry relative="1" as="geometry" />
        </mxCell>
        <mxCell id="fwob3zydzBo_w3l8dipO-20" value="6. Send Email" style="rounded=0;orthogonalLoop=1;jettySize=auto;html=1;entryX=1;entryY=0;entryDx=0;entryDy=0;shape=link;fillColor=#ffe6cc;strokeColor=#d79b00;" edge="1" parent="1" source="fwob3zydzBo_w3l8dipO-2" target="fwob3zydzBo_w3l8dipO-4">
          <mxGeometry relative="1" as="geometry">
            <Array as="points">
              <mxPoint x="510" y="310" />
            </Array>
          </mxGeometry>
        </mxCell>
        <mxCell id="fwob3zydzBo_w3l8dipO-23" value="8. Send Response Action" style="rounded=0;orthogonalLoop=1;jettySize=auto;html=1;entryX=0.25;entryY=0;entryDx=0;entryDy=0;shape=link;fillColor=#e1d5e7;strokeColor=#9673a6;" edge="1" parent="1" source="fwob3zydzBo_w3l8dipO-2" target="fwob3zydzBo_w3l8dipO-4">
          <mxGeometry relative="1" as="geometry">
            <Array as="points">
              <mxPoint x="300" y="290" />
            </Array>
          </mxGeometry>
        </mxCell>
        <mxCell id="fwob3zydzBo_w3l8dipO-25" value="8. Send Response Action" style="edgeStyle=orthogonalEdgeStyle;rounded=0;orthogonalLoop=1;jettySize=auto;html=1;entryX=0.5;entryY=0;entryDx=0;entryDy=0;shape=link;fillColor=#e1d5e7;strokeColor=#9673a6;" edge="1" parent="1" source="fwob3zydzBo_w3l8dipO-2" target="fwob3zydzBo_w3l8dipO-3">
          <mxGeometry relative="1" as="geometry" />
        </mxCell>
        <mxCell id="fwob3zydzBo_w3l8dipO-2" value="Shuffle" style="image;aspect=fixed;perimeter=ellipsePerimeter;html=1;align=center;shadow=0;dashed=0;spacingTop=3;image=img/lib/active_directory/internet_cloud.svg;" vertex="1" parent="1">
          <mxGeometry x="400" y="190" width="50" height="31.5" as="geometry" />
        </mxCell>
        <mxCell id="fwob3zydzBo_w3l8dipO-26" value="9. Perform Response Action" style="rounded=0;orthogonalLoop=1;jettySize=auto;html=1;entryX=-0.008;entryY=0.356;entryDx=0;entryDy=0;entryPerimeter=0;shape=link;fillColor=#f5f5f5;strokeColor=#666666;" edge="1" parent="1" source="fwob3zydzBo_w3l8dipO-3" target="fwob3zydzBo_w3l8dipO-6">
          <mxGeometry relative="1" as="geometry">
            <mxPoint x="190" y="470" as="targetPoint" />
          </mxGeometry>
        </mxCell>
        <mxCell id="fwob3zydzBo_w3l8dipO-3" value="Wazuh Manager" style="image;aspect=fixed;perimeter=ellipsePerimeter;html=1;align=center;shadow=0;dashed=0;spacingTop=3;image=img/lib/active_directory/internet_cloud.svg;" vertex="1" parent="1">
          <mxGeometry x="160" y="280" width="50" height="31.5" as="geometry" />
        </mxCell>
        <mxCell id="fwob3zydzBo_w3l8dipO-10" value="2. Receive Events" style="rounded=0;orthogonalLoop=1;jettySize=auto;html=1;entryX=1;entryY=0.75;entryDx=0;entryDy=0;shape=link;fillColor=#d5e8d4;strokeColor=#82b366;" edge="1" parent="1" source="fwob3zydzBo_w3l8dipO-4" target="fwob3zydzBo_w3l8dipO-3">
          <mxGeometry relative="1" as="geometry" />
        </mxCell>
        <mxCell id="fwob3zydzBo_w3l8dipO-9" style="edgeStyle=orthogonalEdgeStyle;rounded=0;orthogonalLoop=1;jettySize=auto;html=1;entryX=0.5;entryY=1;entryDx=0;entryDy=0;shape=link;" edge="1" parent="1" source="fwob3zydzBo_w3l8dipO-5" target="fwob3zydzBo_w3l8dipO-4">
          <mxGeometry relative="1" as="geometry" />
        </mxCell>
        <mxCell id="fwob3zydzBo_w3l8dipO-4" value="Internet" style="image;aspect=fixed;perimeter=ellipsePerimeter;html=1;align=center;shadow=0;dashed=0;spacingTop=3;image=img/lib/active_directory/internet_cloud.svg;labelPosition=center;verticalLabelPosition=bottom;verticalAlign=top;" vertex="1" parent="1">
          <mxGeometry x="400" y="380" width="50" height="31.5" as="geometry" />
        </mxCell>
        <mxCell id="fwob3zydzBo_w3l8dipO-6" value="Windows 10 Client&lt;div&gt;Wazuh Agent&lt;/div&gt;" style="verticalLabelPosition=bottom;html=1;verticalAlign=top;align=center;strokeColor=none;fillColor=#00BEF2;shape=mxgraph.azure.computer;pointerEvents=1;" vertex="1" parent="1">
          <mxGeometry x="400" y="590" width="50" height="45" as="geometry" />
        </mxCell>
        <mxCell id="fwob3zydzBo_w3l8dipO-24" value="8. Send Response Action" style="rounded=0;orthogonalLoop=1;jettySize=auto;html=1;entryX=1;entryY=1;entryDx=0;entryDy=0;shape=link;fillColor=#e1d5e7;strokeColor=#9673a6;" edge="1" parent="1" source="fwob3zydzBo_w3l8dipO-7" target="fwob3zydzBo_w3l8dipO-4">
          <mxGeometry relative="1" as="geometry">
            <Array as="points">
              <mxPoint x="540" y="480" />
            </Array>
          </mxGeometry>
        </mxCell>
        <mxCell id="fwob3zydzBo_w3l8dipO-7" value="SOC Analyst" style="verticalLabelPosition=bottom;html=1;verticalAlign=top;align=center;strokeColor=none;fillColor=#00BEF2;shape=mxgraph.azure.computer;pointerEvents=1;" vertex="1" parent="1">
          <mxGeometry x="680" y="405" width="50" height="45" as="geometry" />
        </mxCell>
        <mxCell id="fwob3zydzBo_w3l8dipO-8" value="1. Send Events" style="edgeStyle=orthogonalEdgeStyle;rounded=0;orthogonalLoop=1;jettySize=auto;html=1;entryX=0.5;entryY=0;entryDx=0;entryDy=0;entryPerimeter=0;shape=link;" edge="1" parent="1" source="fwob3zydzBo_w3l8dipO-5" target="fwob3zydzBo_w3l8dipO-6">
          <mxGeometry relative="1" as="geometry" />
        </mxCell>
        <mxCell id="fwob3zydzBo_w3l8dipO-12" value="3. Send Alerts" style="rounded=0;orthogonalLoop=1;jettySize=auto;html=1;entryX=0;entryY=0.75;entryDx=0;entryDy=0;shape=link;fillColor=#f8cecc;strokeColor=#b85450;" edge="1" parent="1" source="fwob3zydzBo_w3l8dipO-3" target="fwob3zydzBo_w3l8dipO-2">
          <mxGeometry relative="1" as="geometry" />
        </mxCell>
        <mxCell id="fwob3zydzBo_w3l8dipO-22" value="Text" style="edgeLabel;html=1;align=center;verticalAlign=middle;resizable=0;points=[];" vertex="1" connectable="0" parent="fwob3zydzBo_w3l8dipO-12">
          <mxGeometry x="-0.642" y="-3" relative="1" as="geometry">
            <mxPoint as="offset" />
          </mxGeometry>
        </mxCell>
        <mxCell id="fwob3zydzBo_w3l8dipO-21" value="7. Send &amp;amp; Receive Email" style="rounded=0;orthogonalLoop=1;jettySize=auto;html=1;entryX=0;entryY=0.5;entryDx=0;entryDy=0;entryPerimeter=0;shape=link;fillColor=#ffe6cc;strokeColor=#d79b00;" edge="1" parent="1" source="fwob3zydzBo_w3l8dipO-4" target="fwob3zydzBo_w3l8dipO-7">
          <mxGeometry relative="1" as="geometry" />
        </mxCell>
        <mxCell id="fwob3zydzBo_w3l8dipO-5" value="Router" style="image;aspect=fixed;html=1;points=[];align=center;fontSize=12;image=img/lib/azure2/networking/Virtual_Router.svg;labelPosition=center;verticalLabelPosition=bottom;verticalAlign=top;" vertex="1" parent="1">
          <mxGeometry x="395" y="450" width="60" height="60" as="geometry" />
        </mxCell>
      </root>
    </mxGraphModel>
  </diagram>
</mxfile>
